<svg width="16" height="16" viewBox="0 0 16 16" fill="none" xmlns="http://www.w3.org/2000/svg">
<g clip-path="url(#clip0_1_1131)">
<path d="M0.586738 9.39339L3.16674 12.0001C3.22871 12.0625 3.30245 12.1121 3.38369 12.146C3.46493 12.1798 3.55206 12.1973 3.64007 12.1973C3.72808 12.1973 3.81522 12.1798 3.89646 12.146C3.97769 12.1121 4.05143 12.0625 4.1134 12.0001C4.17589 11.9381 4.22549 11.8643 4.25933 11.7831C4.29318 11.7019 4.3106 11.6147 4.3106 11.5267C4.3106 11.4387 4.29318 11.3516 4.25933 11.2703C4.22549 11.1891 4.17589 11.1154 4.1134 11.0534L1.74007 8.66672H15.3334C15.5102 8.66672 15.6798 8.59648 15.8048 8.47146C15.9298 8.34644 16.0001 8.17687 16.0001 8.00005C16.0001 7.82324 15.9298 7.65367 15.8048 7.52865C15.6798 7.40363 15.5102 7.33339 15.3334 7.33339H1.70007L4.1134 4.92006C4.2316 4.79607 4.29753 4.63135 4.29753 4.46006C4.29753 4.28876 4.2316 4.12404 4.1134 4.00006C4.05143 3.93757 3.97769 3.88797 3.89646 3.85413C3.81522 3.82028 3.72808 3.80286 3.64007 3.80286C3.55206 3.80286 3.46493 3.82028 3.38369 3.85413C3.30245 3.88797 3.22871 3.93757 3.16674 4.00006L0.586738 6.56672C0.212203 6.94172 0.00183105 7.45005 0.00183105 7.98006C0.00183105 8.51006 0.212203 9.01839 0.586738 9.39339Z" fill="white"/>
</g>
<defs>
<clipPath id="clip0_1_1131">
<rect width="16" height="16" fill="white"/>
</clipPath>
</defs>
</svg>
