<svg width="24" height="24" viewBox="0 0 24 24" fill="none" xmlns="http://www.w3.org/2000/svg">
<path d="M16.3497 4.34972C15.672 2.04502 14.4023 0 12 0C9.59769 0 8.32798 2.04502 7.65026 4.34972C6.68806 7.62173 3.62769 12.6926 3.62769 15.6277C3.62769 20.2515 7.37609 24 12 24C16.6239 24 20.3723 20.2515 20.3723 15.6277C20.3723 12.6926 17.3119 7.62178 16.3497 4.34972ZM12 19.1803C9.97058 19.1803 8.32545 17.9303 8.32545 15.3799C8.32545 12.8295 9.97058 9.79322 12 9.79322C14.0294 9.79322 15.6746 12.8295 15.6746 15.38C15.6746 17.9303 14.0294 19.1803 12 19.1803Z" fill="#1F1939"/>
</svg>
