<svg width="123" height="32" viewBox="0 0 123 32" fill="none" xmlns="http://www.w3.org/2000/svg">
<g clip-path="url(#clip0_80_578)">
<path d="M16.0006 5.79492C8.04926 5.79492 0 7.2787 0 10.1151V10.2045C0 19.0274 7.17773 26.2052 16.0006 26.2052C24.8229 26.2052 32.0006 19.0274 32.0006 10.2045V10.1151C32 7.2787 23.9513 5.79492 16.0006 5.79492ZM16.0006 7.0037C25.0296 7.0037 30.7918 8.84648 30.7918 10.1151C30.7918 11.3837 25.0302 13.2265 16.0006 13.2265C6.97224 13.2265 1.20938 11.3831 1.20878 10.1151C1.20878 8.84648 6.97103 7.0037 16.0006 7.0037Z" fill="#1F1939"/>
</g>
<g clip-path="url(#clip1_80_578)">
<path d="M61.3341 5.79492C53.3828 5.79492 45.3335 7.2787 45.3335 10.1151V10.2045C45.3335 19.0274 52.5112 26.2052 61.3341 26.2052C70.1564 26.2052 77.3341 19.0274 77.3341 10.2045V10.1151C77.3335 7.2787 69.2848 5.79492 61.3341 5.79492ZM61.3341 7.0037C70.3631 7.0037 76.1253 8.84648 76.1253 10.1151C76.1253 11.3837 70.3637 13.2265 61.3341 13.2265C52.3057 13.2265 46.5429 11.3831 46.5423 10.1151C46.5423 8.84648 52.3045 7.0037 61.3341 7.0037Z" fill="#1F1939"/>
</g>
<g clip-path="url(#clip2_80_578)">
<path d="M106.667 5.79492C98.7158 5.79492 90.6665 7.2787 90.6665 10.1151V10.2045C90.6665 19.0274 97.8442 26.2052 106.667 26.2052C115.489 26.2052 122.667 19.0274 122.667 10.2045V10.1151C122.667 7.2787 114.618 5.79492 106.667 5.79492ZM106.667 7.0037C115.696 7.0037 121.458 8.84648 121.458 10.1151C121.458 11.3837 115.697 13.2265 106.667 13.2265C97.6387 13.2265 91.8759 11.3831 91.8753 10.1151C91.8753 8.84648 97.6375 7.0037 106.667 7.0037Z" fill="#1F1939"/>
</g>
<defs>
<clipPath id="clip0_80_578">
<rect width="32" height="32" fill="white"/>
</clipPath>
<clipPath id="clip1_80_578">
<rect width="32" height="32" fill="white" transform="translate(45.3335)"/>
</clipPath>
<clipPath id="clip2_80_578">
<rect width="32" height="32" fill="white" transform="translate(90.6665)"/>
</clipPath>
</defs>
</svg>
