<svg width="214" height="32" viewBox="0 0 214 32" fill="none" xmlns="http://www.w3.org/2000/svg">
<g clip-path="url(#clip0_80_546)">
<path d="M16.0006 5.79492C8.04926 5.79492 0 7.2787 0 10.1151V10.2045C0 19.0274 7.17773 26.2052 16.0006 26.2052C24.8229 26.2052 32.0006 19.0274 32.0006 10.2045V10.1151C32 7.2787 23.9513 5.79492 16.0006 5.79492ZM16.0006 7.0037C25.0296 7.0037 30.7918 8.84648 30.7918 10.1151C30.7918 11.3837 25.0302 13.2265 16.0006 13.2265C6.97224 13.2265 1.20938 11.3831 1.20878 10.1151C1.20878 8.84648 6.97103 7.0037 16.0006 7.0037Z" fill="#1F1939"/>
</g>
<g clip-path="url(#clip1_80_546)">
<path d="M61.3341 5.79492C53.3828 5.79492 45.3335 7.2787 45.3335 10.1151V10.2045C45.3335 19.0274 52.5112 26.2052 61.3341 26.2052C70.1564 26.2052 77.3341 19.0274 77.3341 10.2045V10.1151C77.3335 7.2787 69.2848 5.79492 61.3341 5.79492ZM61.3341 7.0037C70.3631 7.0037 76.1253 8.84648 76.1253 10.1151C76.1253 11.3837 70.3637 13.2265 61.3341 13.2265C52.3057 13.2265 46.5429 11.3831 46.5423 10.1151C46.5423 8.84648 52.3045 7.0037 61.3341 7.0037Z" fill="#1F1939"/>
</g>
<g clip-path="url(#clip2_80_546)">
<path d="M106.667 5.79492C98.7158 5.79492 90.6665 7.2787 90.6665 10.1151V10.2045C90.6665 19.0274 97.8442 26.2052 106.667 26.2052C115.489 26.2052 122.667 19.0274 122.667 10.2045V10.1151C122.667 7.2787 114.618 5.79492 106.667 5.79492ZM106.667 7.0037C115.696 7.0037 121.458 8.84648 121.458 10.1151C121.458 11.3837 115.697 13.2265 106.667 13.2265C97.6387 13.2265 91.8759 11.3831 91.8753 10.1151C91.8753 8.84648 97.6375 7.0037 106.667 7.0037Z" fill="#1F1939"/>
</g>
<g clip-path="url(#clip3_80_546)">
<path d="M152.001 5.79492C144.049 5.79492 136 7.2787 136 10.1151V10.2045C136 19.0274 143.178 26.2052 152.001 26.2052C160.823 26.2052 168.001 19.0274 168.001 10.2045V10.1151C168 7.2787 159.951 5.79492 152.001 5.79492ZM152.001 7.0037C161.03 7.0037 166.792 8.84648 166.792 10.1151C166.792 11.3837 161.03 13.2265 152.001 13.2265C142.972 13.2265 137.209 11.3831 137.209 10.1151C137.209 8.84648 142.971 7.0037 152.001 7.0037Z" fill="#1F1939"/>
</g>
<g clip-path="url(#clip4_80_546)">
<path d="M197.334 5.79492C189.382 5.79492 181.333 7.2787 181.333 10.1151V10.2045C181.333 19.0274 188.511 26.2052 197.334 26.2052C206.156 26.2052 213.334 19.0274 213.334 10.2045V10.1151C213.333 7.2787 205.284 5.79492 197.334 5.79492ZM197.334 7.0037C206.363 7.0037 212.125 8.84648 212.125 10.1151C212.125 11.3837 206.363 13.2265 197.334 13.2265C188.305 13.2265 182.542 11.3831 182.542 10.1151C182.542 8.84648 188.304 7.0037 197.334 7.0037Z" fill="#1F1939"/>
</g>
<defs>
<clipPath id="clip0_80_546">
<rect width="32" height="32" fill="white"/>
</clipPath>
<clipPath id="clip1_80_546">
<rect width="32" height="32" fill="white" transform="translate(45.3335)"/>
</clipPath>
<clipPath id="clip2_80_546">
<rect width="32" height="32" fill="white" transform="translate(90.6665)"/>
</clipPath>
<clipPath id="clip3_80_546">
<rect width="32" height="32" fill="white" transform="translate(136)"/>
</clipPath>
<clipPath id="clip4_80_546">
<rect width="32" height="32" fill="white" transform="translate(181.333)"/>
</clipPath>
</defs>
</svg>
