<svg width="189" height="32" viewBox="0 0 189 32" fill="none" xmlns="http://www.w3.org/2000/svg">
<g clip-path="url(#clip0_80_563)">
<path d="M18.0007 5.79492C9.05542 5.79492 0 7.2787 0 10.1151V10.2045C0 19.0274 8.07495 26.2052 18.0007 26.2052C27.9257 26.2052 36.0007 19.0274 36.0007 10.2045V10.1151C36 7.2787 26.9453 5.79492 18.0007 5.79492ZM18.0007 7.0037C28.1583 7.0037 34.6408 8.84648 34.6408 10.1151C34.6408 11.3837 28.159 13.2265 18.0007 13.2265C7.84377 13.2265 1.36056 11.3831 1.35988 10.1151C1.35988 8.84648 7.84241 7.0037 18.0007 7.0037Z" fill="#1F1939"/>
</g>
<g clip-path="url(#clip1_80_563)">
<path d="M69.0007 5.79492C60.0554 5.79492 51 7.2787 51 10.1151V10.2045C51 19.0274 59.0749 26.2052 69.0007 26.2052C78.9257 26.2052 87.0007 19.0274 87.0007 10.2045V10.1151C87 7.2787 77.9453 5.79492 69.0007 5.79492ZM69.0007 7.0037C79.1583 7.0037 85.6408 8.84648 85.6408 10.1151C85.6408 11.3837 79.159 13.2265 69.0007 13.2265C58.8438 13.2265 52.3606 11.3831 52.3599 10.1151C52.3599 8.84648 58.8424 7.0037 69.0007 7.0037Z" fill="#1F1939"/>
</g>
<g clip-path="url(#clip2_80_563)">
<path d="M120.001 5.79492C111.055 5.79492 102 7.2787 102 10.1151V10.2045C102 19.0274 110.075 26.2052 120.001 26.2052C129.926 26.2052 138.001 19.0274 138.001 10.2045V10.1151C138 7.2787 128.945 5.79492 120.001 5.79492ZM120.001 7.0037C130.158 7.0037 136.641 8.84648 136.641 10.1151C136.641 11.3837 130.159 13.2265 120.001 13.2265C109.844 13.2265 103.361 11.3831 103.36 10.1151C103.36 8.84648 109.842 7.0037 120.001 7.0037Z" fill="#1F1939"/>
</g>
<g clip-path="url(#clip3_80_563)">
<path d="M171.001 5.79492C162.055 5.79492 153 7.2787 153 10.1151V10.2045C153 19.0274 161.075 26.2052 171.001 26.2052C180.926 26.2052 189.001 19.0274 189.001 10.2045V10.1151C189 7.2787 179.945 5.79492 171.001 5.79492ZM171.001 7.0037C181.158 7.0037 187.641 8.84648 187.641 10.1151C187.641 11.3837 181.159 13.2265 171.001 13.2265C160.844 13.2265 154.361 11.3831 154.36 10.1151C154.36 8.84648 160.842 7.0037 171.001 7.0037Z" fill="#1F1939"/>
</g>
<defs>
<clipPath id="clip0_80_563">
<rect width="36" height="32" fill="white"/>
</clipPath>
<clipPath id="clip1_80_563">
<rect width="36" height="32" fill="white" transform="translate(51)"/>
</clipPath>
<clipPath id="clip2_80_563">
<rect width="36" height="32" fill="white" transform="translate(102)"/>
</clipPath>
<clipPath id="clip3_80_563">
<rect width="36" height="32" fill="white" transform="translate(153)"/>
</clipPath>
</defs>
</svg>
