<svg width="24" height="24" viewBox="0 0 24 24" fill="none" xmlns="http://www.w3.org/2000/svg">
<g clip-path="url(#clip0_80_1130)">
<path d="M14.4178 2.54413H9.41843C8.7282 2.54413 8.16858 1.98451 8.16858 1.29428L9.83504 0.0444336H14.4178C15.108 0.0444336 15.6677 0.603855 15.6677 1.29428C15.6677 1.98451 15.108 2.54413 14.4178 2.54413Z" fill="#1F1939"/>
<path d="M21.0332 8.26364L17.4979 4.7285C17.0097 4.24049 17.0097 3.44896 17.4979 2.96094L19.5602 3.2555L22.8006 6.49587C23.2888 6.98389 23.2888 7.77542 22.8006 8.26364C22.3126 8.75145 21.5214 8.75145 21.0332 8.26364Z" fill="#1F1939"/>
<path d="M6.86824 8.68014L3.3329 5.14501C2.84468 4.65699 2.84468 3.86546 3.3329 3.37744L5.39523 3.672L8.6356 6.91237C9.12382 7.40039 9.12382 8.19192 8.6356 8.68014C8.14758 9.16796 7.35646 9.16796 6.86824 8.68014Z" fill="#1F1939"/>
<path d="M15.971 7.17727L12.436 10.7128C11.9478 11.201 11.1565 11.201 10.6683 10.7128L10.9628 8.65048L14.2032 5.41011C14.6914 4.92189 15.483 4.92189 15.971 5.41011C16.459 5.89813 16.459 6.68925 15.971 7.17727Z" fill="#1F1939"/>
<path d="M5.3027 11.3436L1.76777 14.8792C1.27955 15.3674 0.488018 15.3674 0 14.8792L0.294967 12.8168L3.53534 9.57646C4.02356 9.08844 4.81468 9.08844 5.3027 9.57646C5.79051 10.0645 5.79051 10.8556 5.3027 11.3436Z" fill="#1F1939"/>
<path d="M11.5015 15.8762H6.50211C5.81188 15.8762 5.25226 15.3165 5.25226 14.6263L6.91872 13.3765H11.5015C12.1917 13.3765 12.7513 13.9359 12.7513 14.6263C12.7513 15.3165 12.1917 15.8762 11.5015 15.8762Z" fill="#1F1939"/>
<path d="M17.7507 10.8765H22.7501C23.4403 10.8765 23.9999 11.4359 23.9999 12.1263L22.3335 13.3762H17.7507C17.0605 13.3762 16.5009 12.8165 16.5009 12.1263C16.5009 11.4359 17.0605 10.8765 17.7507 10.8765Z" fill="#1F1939"/>
<path d="M3.58579 17.959H8.58518C9.2754 17.959 9.83503 18.5184 9.83503 19.2088L8.16856 20.4587H3.58579C2.89556 20.4587 2.33594 19.8991 2.33594 19.2088C2.33594 18.5184 2.89556 17.959 3.58579 17.959Z" fill="#1F1939"/>
<path d="M14.8849 20.0926L11.3499 23.6282C10.8617 24.1164 10.0702 24.1164 9.58215 23.6282L9.87712 21.5659L13.1175 18.3255C13.6057 17.8375 14.3968 17.8375 14.8849 18.3255C15.3727 18.8135 15.3727 19.6046 14.8849 20.0926Z" fill="#1F1939"/>
<path d="M19.3668 20.0923L15.8314 16.5573C15.3432 16.0693 15.3432 15.2778 15.8314 14.7896L17.8938 15.0845L21.1341 18.3251C21.622 18.8131 21.622 19.6042 21.1341 20.0923C20.6461 20.5803 19.855 20.5803 19.3668 20.0923Z" fill="#1F1939"/>
</g>
<defs>
<clipPath id="clip0_80_1130">
<rect width="24" height="24" fill="white"/>
</clipPath>
</defs>
</svg>
