<svg width="24" height="24" viewBox="0 0 24 24" fill="none" xmlns="http://www.w3.org/2000/svg">
<g clip-path="url(#clip0_74_228)">
<path d="M24 0.75V0H22.5938V0.75C22.5938 2.51897 21.2976 3.99028 19.6052 4.26562H4.39481C2.70244 3.99028 1.40625 2.51897 1.40625 0.75V0H0V0.75C0 2.33437 0.745406 3.74794 1.90397 4.65839C0.774234 5.24381 0 6.42342 0 7.78125V9.9375H2.15625C3.04369 9.9375 3.85477 9.60628 4.47408 9.06192L4.99927 19.3296C5.13323 21.9485 7.29239 24 9.91472 24H14.0853C16.7076 24 18.8668 21.9485 19.0007 19.3296L19.5259 9.06192C20.1452 9.60628 20.9563 9.9375 21.8438 9.9375H24V7.78125C24 6.42342 23.2258 5.24381 22.096 4.65839C23.2546 3.74794 24 2.33437 24 0.75ZM4.26562 6.42188C4.26562 7.58498 3.31936 8.53125 2.15625 8.53125H1.40625V7.78125C1.40625 6.61814 2.35252 5.67188 3.51562 5.67188H4.26562V6.42188ZM15.75 9.65625C16.2678 9.65625 16.6875 10.076 16.6875 10.5938C16.6875 11.1115 16.2678 11.5312 15.75 11.5312C15.2322 11.5312 14.8125 11.1115 14.8125 10.5938C14.8125 10.076 15.2322 9.65625 15.75 9.65625ZM5.70877 5.67188H8.57812C9.69131 5.67188 10.5938 6.57431 10.5938 7.6875V9.77344C10.5938 10.433 11.1334 10.9667 11.793 10.9688C12.4513 10.9709 12.9844 11.5052 12.9844 12.1641V15.1937C12.6592 15.1586 12.3306 15.1406 12 15.1406C9.90989 15.1406 7.90317 15.8556 6.29536 17.14L5.70877 5.67188ZM17.5964 19.2577C17.5006 21.1284 15.9584 22.5938 14.0853 22.5938H9.91472C8.04159 22.5938 6.49936 21.1284 6.40369 19.2577L6.38845 18.9595C7.84692 17.4224 9.87248 16.5469 12 16.5469C14.1275 16.5469 16.153 17.4223 17.6116 18.9595L17.5964 19.2577ZM22.5938 7.78125V8.53125H21.8438C20.6806 8.53125 19.7344 7.58498 19.7344 6.42188V5.67188H20.4844C21.6475 5.67188 22.5938 6.61814 22.5938 7.78125Z" fill="#1F1939"/>
<path d="M9.65625 21.1875C10.174 21.1875 10.5938 20.7678 10.5938 20.25C10.5938 19.7322 10.174 19.3125 9.65625 19.3125C9.13848 19.3125 8.71875 19.7322 8.71875 20.25C8.71875 20.7678 9.13848 21.1875 9.65625 21.1875Z" fill="#1F1939"/>
<path d="M14.3438 21.1875C14.8615 21.1875 15.2812 20.7678 15.2812 20.25C15.2812 19.7322 14.8615 19.3125 14.3438 19.3125C13.826 19.3125 13.4062 19.7322 13.4062 20.25C13.4062 20.7678 13.826 21.1875 14.3438 21.1875Z" fill="#1F1939"/>
<path d="M8.25 11.5312C8.76777 11.5312 9.1875 11.1115 9.1875 10.5938C9.1875 10.076 8.76777 9.65625 8.25 9.65625C7.73223 9.65625 7.3125 10.076 7.3125 10.5938C7.3125 11.1115 7.73223 11.5312 8.25 11.5312Z" fill="#1F1939"/>
</g>
<defs>
<clipPath id="clip0_74_228">
<rect width="24" height="24" fill="white"/>
</clipPath>
</defs>
</svg>
