<svg width="24" height="24" viewBox="0 0 24 24" fill="none" xmlns="http://www.w3.org/2000/svg">
<path d="M18.5973 4.78537C17.7543 3.35081 16.7889 2.20767 15.7279 1.38764C14.5367 0.466875 13.2824 0 12 0C10.7176 0 9.46336 0.466875 8.27213 1.38764C7.21116 2.20767 6.24572 3.35086 5.40277 4.78537C3.78811 7.53295 2.82422 11.0747 2.82422 14.2594C2.82422 15.8533 3.06338 17.2973 3.53508 18.5512C3.98831 19.7559 4.65638 20.7897 5.5207 21.6238C7.13175 23.1783 9.37223 24 12 24C14.6278 24 16.8683 23.1783 18.4793 21.6238C19.3437 20.7897 20.0117 19.7559 20.4649 18.5512C20.9366 17.2973 21.1758 15.8533 21.1758 14.2594C21.1758 11.0747 20.2118 7.53295 18.5973 4.78537Z" fill="#1F1939"/>
</svg>
