<svg width="18" height="30" viewBox="0 0 18 30" fill="none" xmlns="http://www.w3.org/2000/svg">
<path d="M8.92531 9.37204C11.5092 9.37204 13.6115 7.27002 13.6115 4.68617C13.6115 2.10203 11.5092 0 8.92531 0C6.34146 0 4.23914 2.10203 4.23914 4.68617C4.23914 7.27002 6.34116 9.37204 8.92531 9.37204Z" fill="#1F1939"/>
<path d="M17.7854 27.5718L14.7757 16.1875C14.0745 13.5351 11.6687 11.6827 8.92535 11.6827C6.182 11.6827 3.77592 13.5351 3.07475 16.1875L0.0653496 27.5718C-0.0893698 28.1565 0.0336276 28.7667 0.40262 29.2459C0.771612 29.725 1.33004 30 1.93485 30H15.9156C16.5204 30 17.0788 29.725 17.4478 29.2459C17.8168 28.7667 17.9398 28.1565 17.7854 27.5718Z" fill="#1F1939"/>
</svg>
