<svg width="24" height="24" viewBox="0 0 24 24" fill="none" xmlns="http://www.w3.org/2000/svg">
<path d="M14.6841 5.35075C15.1252 5.35075 15.563 5.37414 15.997 5.41923C15.851 5.23496 15.6979 5.05576 15.5371 4.88269C14.4265 3.68699 13.0194 2.82068 11.4679 2.37738C11.0573 2.26005 10.6257 2.34082 10.2834 2.59878C9.93772 2.85922 9.73924 3.25658 9.73882 3.68891L9.73657 6.10947C11.4248 5.62567 13.146 5.35075 14.6841 5.35075Z" fill="#1F1939"/>
<path d="M17.2285 18.363C16.3963 18.5346 15.5462 18.6219 14.6841 18.6219C13.4126 18.6219 12.016 18.4334 10.6163 18.095L10.6186 20.3104C10.6191 20.7371 10.8132 21.1315 11.1513 21.3925C11.4843 21.6496 11.9072 21.7367 12.3114 21.6313C13.8776 21.2233 15.2975 20.417 16.4174 19.2995C16.7129 19.0048 16.9833 18.6914 17.2285 18.363Z" fill="#1F1939"/>
<path d="M3.65981 14.9848L4.10264 14.5924V9.38035L3.65986 8.98805C2.86555 8.28435 1.95434 7.75156 0.951574 7.4045C0.729852 7.32771 0.49299 7.36184 0.301691 7.49811C0.10997 7.63461 0 7.8478 0 8.08302V9.95612C0 10.6879 0.687711 11.2833 1.53297 11.2833C1.92129 11.2833 2.2361 11.5981 2.2361 11.9864C2.2361 12.3747 1.92129 12.6895 1.53297 12.6895C0.687711 12.6895 0 13.2849 0 14.0167V15.8898C0 16.125 0.10997 16.3382 0.301691 16.4747C0.493037 16.611 0.73004 16.6451 0.951574 16.5683C1.95434 16.2213 2.86555 15.6885 3.65981 14.9848Z" fill="#1F1939"/>
<path d="M19.3288 7.76807C18.2879 8.92969 17.7196 10.4106 17.7196 11.9864C17.7196 13.5623 18.2879 15.0432 19.3288 16.2048C21.1591 15.367 22.7242 14.055 23.8757 12.3877C24.0415 12.1477 24.0415 11.8251 23.8757 11.5851C22.7242 9.91783 21.1591 8.60583 19.3288 7.76807ZM20.3668 12.6896C19.9726 12.6896 19.6807 12.3674 19.6637 11.9864C19.6467 11.6067 19.999 11.2833 20.3668 11.2833C20.761 11.2833 21.0529 11.6055 21.0699 11.9864C21.087 12.3661 20.7346 12.6896 20.3668 12.6896Z" fill="#1F1939"/>
<path d="M14.6841 17.2157C15.7967 17.2157 16.8871 17.0537 17.9377 16.7331C16.8836 15.3824 16.3133 13.732 16.3133 11.9864C16.3133 10.2407 16.8836 8.59034 17.9377 7.23966C16.8871 6.91908 15.7966 6.75708 14.6841 6.75708C11.7668 6.75708 8.13169 7.83058 5.50891 9.44985V14.5229C8.13169 16.1422 11.7667 17.2157 14.6841 17.2157Z" fill="#1F1939"/>
</svg>
