<svg width="36" height="36" viewBox="0 0 36 36" fill="none" xmlns="http://www.w3.org/2000/svg">
<g clip-path="url(#clip0_10_257)">
<path d="M18.3554 10.0921C21.0502 10.0921 23.2333 7.83204 23.2333 5.04888C23.2333 2.26005 21.0502 0 18.3554 0C15.6583 0 13.4707 2.26005 13.4707 5.04888C13.4707 7.83204 15.6583 10.0921 18.3554 10.0921Z" fill="#1F1939"/>
<path d="M27.0107 14.3709C26.7684 13.6349 25.3848 11.4032 21.6301 11.3828L14.2804 11.4021C10.6356 11.1982 9.18057 13.3519 8.95298 14.3064C8.95298 14.3064 6.49138 22.1656 6.91373 23.9863C7.17528 25.1163 9.13641 26.4989 11.2243 27.527L8.44345 35.9999H28.0524L25.3474 27.2303C27.2111 26.2441 28.8484 25.0133 29.0851 23.9863C29.5131 22.1441 27.0107 14.3709 27.0107 14.3709ZM15.0673 23.0318C14.7265 23.1835 14.3495 23.2707 13.9543 23.2707C12.4212 23.2707 11.1802 22.0093 11.1802 20.4547C11.1802 18.9001 12.4223 17.6398 13.9543 17.6398C15.4591 17.6398 16.6956 18.8582 16.7363 20.3777C17.2142 20.0346 17.7033 19.8738 18.0702 19.807C18.0702 19.8093 18.0702 19.8116 18.0702 19.815C18.6216 19.7097 19.0496 19.815 19.0496 19.815C20.8998 20.2249 24.9885 22.0388 24.9885 22.0388C24.9885 22.0388 22.7941 24.7563 18.8084 24.7393C18.7043 24.7393 18.6023 24.737 18.5061 24.7325H18.505C18.1381 24.7234 17.8086 24.6997 17.512 24.6634C15.6301 24.4415 15.0911 23.7395 15.0673 23.0318Z" fill="#1F1939"/>
</g>
<defs>
<clipPath id="clip0_10_257">
<rect width="35.9989" height="36" fill="white"/>
</clipPath>
</defs>
</svg>
