<svg width="16" height="16" viewBox="0 0 16 16" fill="none" xmlns="http://www.w3.org/2000/svg">
<path d="M14 8.27846V7.33313C14 5.74183 13.3678 4.21571 12.2426 3.09049C11.1174 1.96527 9.59128 1.33313 7.99998 1.33313C6.40868 1.33313 4.88256 1.96527 3.75734 3.09049C2.63212 4.21571 1.99998 5.74183 1.99998 7.33313V8.27846C1.29834 8.58492 0.723597 9.12358 0.372343 9.80389C0.0210884 10.4842 -0.0852577 11.2647 0.0711796 12.0142C0.227617 12.7637 0.6373 13.4365 1.23137 13.9195C1.82544 14.4025 2.56767 14.6663 3.33331 14.6665H4.66665V7.9998H3.33331V7.33313C3.33331 6.09545 3.82498 4.90847 4.70015 4.0333C5.57532 3.15813 6.7623 2.66646 7.99998 2.66646C9.23766 2.66646 10.4246 3.15813 11.2998 4.0333C12.175 4.90847 12.6666 6.09545 12.6666 7.33313V7.9998H11.3333V13.3331H8.66665V14.6665H12.6666C13.4323 14.6663 14.1745 14.4025 14.7686 13.9195C15.3627 13.4365 15.7723 12.7637 15.9288 12.0142C16.0852 11.2647 15.9789 10.4842 15.6276 9.80389C15.2764 9.12358 14.7016 8.58492 14 8.27846Z" fill="#A4BF43"/>
</svg>
