<svg width="18" height="30" viewBox="0 0 18 30" fill="none" xmlns="http://www.w3.org/2000/svg">
<path d="M8.92519 9.37234C11.509 9.37234 13.6114 7.27001 13.6114 4.68617C13.6114 2.10233 11.509 0 8.92519 0C6.34134 0 4.23901 2.10233 4.23901 4.68617C4.23901 7.27001 6.34104 9.37234 8.92519 9.37234Z" fill="#1F1939"/>
<path d="M15.9154 11.6827H1.93496C1.33015 11.6827 0.771423 11.9577 0.40273 12.4368C0.0337379 12.9159 -0.0892595 13.5261 0.0651606 14.1109L3.07486 25.4952C3.77603 28.1476 6.18181 30 8.92517 30C11.6685 30 14.0743 28.1476 14.7755 25.4952L17.7852 14.1112C17.9396 13.5264 17.8169 12.9162 17.4479 12.4368C17.0789 11.9577 16.5205 11.6827 15.9154 11.6827Z" fill="#1F1939"/>
</svg>
