<svg width="24" height="24" viewBox="0 0 24 24" fill="none" xmlns="http://www.w3.org/2000/svg">
<path d="M13.718 22.2425C14.1575 21.761 14.376 21.1125 14.317 20.463L13.5475 12H10.4525L9.68305 20.463C9.45955 22.646 12.256 23.881 13.718 22.2425Z" fill="#1F1939"/>
<path d="M8.87152 1.16526C8.77702 1.05976 8.64152 0.999757 8.50002 0.999757H6.00002C5.58002 0.986257 5.33652 1.53376 5.63002 1.83626L7.60302 4.00626C9.35852 5.93676 10.36 8.40476 10.4765 10.9998H13.4875C13.378 7.83376 12.1335 4.79426 10.027 2.44876L8.87152 1.16526Z" fill="#1F1939"/>
<path d="M13 1H11C10.7295 1 10.5125 1.2155 10.5035 1.4835C11.268 2.305 11.949 3.2065 12.5175 4.174C12.788 3.8965 13.2075 3.53 13.5 3.271V1.5C13.5 1.224 13.2765 1 13 1Z" fill="#1F1939"/>
<path d="M18 2.99979H15.5C15.3775 2.99979 15.2595 3.04479 15.168 3.12579L13.6575 4.46829C13.4315 4.66879 13.221 4.88429 13.017 5.10529C13.536 6.16429 13.922 7.28429 14.1705 8.44029C14.8175 6.73629 17.0335 5.08529 18.334 3.87079C18.674 3.58529 18.445 2.98479 18 2.99979Z" fill="#1F1939"/>
</svg>
