<svg width="24" height="24" viewBox="0 0 24 24" fill="none" xmlns="http://www.w3.org/2000/svg">
<g clip-path="url(#clip0_80_1104)">
<path d="M23.6413 4.23073C22.0951 2.37227 19.8814 1.85041 17.8238 3.4533C17.7228 2.81805 17.4621 2.21065 17.0439 1.64941L15.9139 2.49134C16.8204 3.70802 16.4011 4.93554 16.0415 5.59498C13.4444 4.25257 7.09135 3.46484 4.14662 11.2802C2.95641 14.4389 0.670743 15.3726 0.149961 16.7239C-1.20412 20.2374 6.85576 25.1979 14.484 20.2963C21.3302 15.8969 20.4257 9.04413 17.2189 6.37245C17.3294 6.17904 17.4466 5.94579 17.5511 5.6794C19.7953 7.64754 22.1562 7.0834 24 4.66193L23.6413 4.23073Z" fill="#1F1939"/>
</g>
<defs>
<clipPath id="clip0_80_1104">
<rect width="24" height="24" fill="white"/>
</clipPath>
</defs>
</svg>
