<svg width="24" height="24" viewBox="0 0 24 24" fill="none" xmlns="http://www.w3.org/2000/svg">
<g clip-path="url(#clip0_74_307)">
<path d="M2.85938 10.5938C2.85938 10.9823 3.17395 11.2969 3.5625 11.2969H20.4375C20.826 11.2969 21.1406 10.9823 21.1406 10.5938C21.1406 6.09796 17.851 3.08514 12.7031 2.83685V2.10938C12.7031 1.72137 13.0182 1.40625 13.4062 1.40625H14.8125C15.201 1.40625 15.5156 1.09167 15.5156 0.703125C15.5156 0.314575 15.201 0 14.8125 0H13.4062C12.2432 0 11.2969 0.946289 11.2969 2.10938V2.83685C6.14905 3.08514 2.85938 6.09796 2.85938 10.5938Z" fill="#1F1939"/>
<path d="M10.4022 22.6934L11.5029 23.794C11.6402 23.9313 11.82 24 12 24C12.1798 24 12.3598 23.9313 12.4971 23.794L13.5978 22.6934C13.7076 22.5835 13.8455 22.5051 13.996 22.4674C17.3751 21.6227 19.7344 18.601 19.7344 15.1188V12.7031H4.26562V15.1188C4.26562 18.601 6.62494 21.6227 10.004 22.4674C10.1543 22.5051 10.2924 22.5835 10.4022 22.6934Z" fill="#1F1939"/>
</g>
<defs>
<clipPath id="clip0_74_307">
<rect width="24" height="24" fill="white"/>
</clipPath>
</defs>
</svg>
