<svg width="24" height="24" viewBox="0 0 24 24" fill="none" xmlns="http://www.w3.org/2000/svg">
<g clip-path="url(#clip0_80_1102)">
<path d="M22.9007 15.6428C22.3097 14.879 21.5563 14.3838 20.7303 14.2045V11.514C21.5928 11.4133 22.4751 11.279 23.3771 11.11C23.7589 11.0385 24.0104 10.6709 23.9388 10.2891C23.8673 9.90729 23.5 9.65553 23.118 9.72737C20.6429 10.1912 18.3282 10.3873 16.1937 10.3168C16.9602 10.1106 17.811 9.73783 18.4863 9.06491C20.0883 7.46883 19.999 4.88807 19.9944 4.779C19.979 4.41368 19.6863 4.12104 19.321 4.1058C19.2116 4.10121 16.624 4.0124 15.0233 5.60726C13.4214 7.20334 13.5107 9.78411 13.5153 9.89317C13.518 9.95769 13.5298 10.0198 13.5487 10.0787C7.13203 9.21866 2.79558 4.8755 1.55534 0.539042C1.46471 0.162048 1.08602 -0.0704311 0.708562 0.0192221C0.330725 0.109157 0.0973074 0.488448 0.187242 0.866332C0.221659 1.01089 1.06849 4.44224 4.38612 7.4331C4.64444 7.666 4.91091 7.88943 5.18489 8.104C4.29657 8.16983 2.65242 8.45061 1.51033 9.58853C-0.0915176 11.1846 -0.00219261 13.7654 0.0023557 13.8744C0.0177355 14.2398 0.310421 14.5324 0.675739 14.5476C1.38931 14.5462 3.45499 14.5069 4.97342 13.0462C6.30195 11.7225 6.46723 9.72174 6.48238 9.01507C7.13007 9.4216 7.8132 9.78411 8.53062 10.1011V12.7969C5.1396 13.5965 4.33567 18.5847 6.36023 21.0864C7.85817 23.0942 10.6098 23.0945 12.1076 21.0863C14.1318 18.577 13.3313 13.6029 9.93731 12.7969V10.6496C10.4373 10.8202 10.9515 10.9711 11.4796 11.1018C13.8571 11.7041 16.7092 11.8582 19.3237 11.65V14.2045C18.4977 14.3838 17.7442 14.879 17.1533 15.6428C15.6875 17.4613 15.6876 20.6757 17.1533 22.494C18.651 24.5021 21.403 24.502 22.9007 22.494C24.3664 20.6756 24.3664 17.4612 22.9007 15.6428Z" fill="#1F1939"/>
</g>
<defs>
<clipPath id="clip0_80_1102">
<rect width="24" height="24" fill="white"/>
</clipPath>
</defs>
</svg>
