<svg width="24" height="24" viewBox="0 0 24 24" fill="none" xmlns="http://www.w3.org/2000/svg">
<g clip-path="url(#clip0_80_1054)">
<path d="M23.6148 14.8919C22.4917 11.4664 20.1893 9.85661 17.9618 8.30298C15.5846 6.65577 13.3384 5.0647 12.964 1.32103C12.9453 1.20872 12.9453 1.09641 12.9266 0.965379C12.9266 0.927943 12.9266 0.871788 12.9266 0.834351C12.9079 0.647167 12.9079 0.441265 12.9079 0.254081C12.9266 0.235363 12.9266 0.216644 12.9266 0.197926C12.9266 0.0856157 12.8517 0.0107422 12.7394 0.0107422C12.7207 0.0107422 12.702 0.0107422 12.702 0.0107422H11.2981C11.2794 0.0107422 11.2607 0.0107422 11.2607 0.0107422C11.1484 0.0107422 11.0735 0.0856157 11.0735 0.197926C11.0735 0.403828 11.0735 0.591012 11.0548 0.796914C11.0548 0.871788 11.0548 0.946661 11.036 1.02153C11.036 1.04025 11.036 1.04025 11.036 1.05897C10.7553 4.98983 8.4529 6.61833 6.01952 8.3217C3.77331 9.85661 1.48967 11.4664 0.385284 14.8919C-0.700382 18.2799 0.684778 20.8817 2.35071 22.192C3.38022 22.9969 4.5782 23.4274 5.77618 23.4274C6.69338 23.4274 7.61058 23.1841 8.47162 22.6787C9.48242 23.521 10.6991 23.989 11.9907 23.989H12.0094C13.301 23.989 14.5177 23.521 15.5285 22.6787C16.3895 23.1654 17.3067 23.4274 18.2239 23.4274C19.4219 23.4274 20.6199 23.0156 21.6494 22.192C23.3153 20.8817 24.7005 18.2799 23.6148 14.8919Z" fill="#1F1939"/>
</g>
<defs>
<clipPath id="clip0_80_1054">
<rect width="24" height="24" fill="white"/>
</clipPath>
</defs>
</svg>
