<svg width="24" height="24" viewBox="0 0 24 24" fill="none" xmlns="http://www.w3.org/2000/svg">
<g clip-path="url(#clip0_74_311)">
<path d="M14.5204 10.7235C15.0664 9.50084 14.8083 8.02926 13.8629 6.97458C12.9234 5.92636 11.5481 5.56218 10.1841 6.00031C9.42709 6.24331 8.62759 6.10707 7.99047 5.62629C7.35644 5.14781 7.00786 4.41747 7.03406 3.62251C7.07722 2.31387 6.5089 1.19433 5.47475 0.550887C4.3702 -0.136471 2.91488 -0.18446 1.76722 0.428618C0.69262 1.00266 0.0515166 2.08255 0.00835462 3.39143C-0.0767509 5.97056 0.86494 8.4127 2.65998 10.2679C4.45535 12.1235 6.86549 13.1454 9.4464 13.1454C12.9201 13.1454 14.1164 11.628 14.5204 10.7235Z" fill="#1F1939"/>
<path d="M22.6251 12.4313C21.563 11.6696 20.1088 11.5252 18.9203 12.0632C17.8162 12.563 17.1096 13.5921 16.9816 14.8864C16.9152 15.5585 16.5604 16.1666 16.0084 16.5546C15.4546 16.9439 14.7613 17.0725 14.1063 16.9075C11.8769 16.3461 10.2793 17.7638 9.85344 19.4545C9.42608 21.1512 10.1443 23.1587 12.3439 23.7128C13.1084 23.9052 13.8849 23.9999 14.6566 23.9999C16.5762 23.9999 18.4657 23.4142 20.0633 22.291C22.2831 20.7303 23.7096 18.2836 23.9772 15.5782C24.1049 14.2861 23.6121 13.1391 22.6251 12.4313Z" fill="#1F1939"/>
</g>
<defs>
<clipPath id="clip0_74_311">
<rect width="24" height="24" fill="white"/>
</clipPath>
</defs>
</svg>
