<svg width="24" height="24" viewBox="0 0 24 24" fill="none" xmlns="http://www.w3.org/2000/svg">
<path d="M5.625 13.4775C5.625 10.3559 6.936 7.5423 9.04763 6.135C9.066 6.12255 9.08617 6.11453 9.1047 6.10238C8.48885 5.79707 7.81231 5.63393 7.125 5.625C4.02322 5.625 1.5 8.83118 1.5 12.7725C1.5 16.7096 4.02322 19.9125 7.125 19.9125C7.38379 19.91 7.64188 19.8849 7.8963 19.8375C7.8825 19.8225 7.8675 19.8099 7.85378 19.7948C6.36308 18.0326 5.57013 15.785 5.625 13.4775Z" fill="#1F1939"/>
<path d="M16.875 5.625C16.1876 5.63388 15.511 5.79702 14.895 6.10238C14.9156 6.1158 14.9378 6.12487 14.9582 6.13845C17.0662 7.54725 18.375 10.3586 18.375 13.4775C18.4298 15.7849 17.6368 18.0324 16.1462 19.7947C16.1325 19.8097 16.1175 19.8224 16.1037 19.8374C16.3581 19.8848 16.6162 19.9099 16.875 19.9124C19.9768 19.9124 22.5 16.7095 22.5 12.7724C22.5 8.83118 19.9768 5.625 16.875 5.625Z" fill="#1F1939"/>
<path d="M14.3298 7.0719C13.8529 6.75153 13.3151 6.53295 12.75 6.42983V6.375C12.7504 5.97732 12.9086 5.59605 13.1898 5.31484C13.471 5.03364 13.8523 4.87546 14.25 4.875C14.4489 4.875 14.6397 4.79598 14.7803 4.65533C14.921 4.51468 15 4.32391 15 4.125C15 3.92609 14.921 3.73532 14.7803 3.59467C14.6397 3.45402 14.4489 3.375 14.25 3.375C13.4546 3.37583 12.692 3.69217 12.1296 4.2546C11.5672 4.81703 11.2508 5.57961 11.25 6.375V6.4296C10.6854 6.53257 10.1481 6.75084 9.67161 7.07078C7.86914 8.2725 6.74999 10.7274 6.74999 13.4775C6.69461 15.505 7.38319 17.4827 8.68581 19.0373C9.0934 19.5226 9.59989 19.9153 10.1714 20.1891C10.743 20.4629 11.3664 20.6115 12 20.625C12.6336 20.6115 13.2571 20.4629 13.8286 20.1891C14.4002 19.9152 14.9066 19.5225 15.3142 19.0371C16.6168 17.4826 17.3054 15.5049 17.25 13.4775C17.25 10.7281 16.1308 8.27378 14.3298 7.0719Z" fill="#1F1939"/>
</svg>
