<svg width="24" height="24" viewBox="0 0 24 24" fill="none" xmlns="http://www.w3.org/2000/svg">
<path d="M5.89165 10.4078L5.96805 10.4062C6.49165 9.59623 6.80005 8.63583 6.80005 7.59983C6.80005 6.23303 6.26885 4.99343 5.40645 4.06543C4.58125 4.77783 3.98125 5.74423 3.73085 6.84343C3.18405 6.12983 2.45845 5.56063 1.61925 5.20623C1.10325 6.01383 0.800049 6.97063 0.800049 7.99983C0.800049 9.46623 1.40805 10.7898 2.38445 11.7346C3.35845 10.9086 4.58925 10.4314 5.89165 10.4078Z" fill="#1F1939"/>
<path d="M18.8321 20.363L16.6344 18.1654C16.4896 18.021 16.4001 17.821 16.4001 17.5998C16.4001 17.1582 16.7585 16.7998 17.2001 16.7998C17.4213 16.7998 17.6213 16.8894 17.7657 17.0342L19.9937 19.2622C21.4845 17.6222 22.4749 15.5214 22.7321 13.1998H19.2001C18.7585 13.1998 18.4001 12.8414 18.4001 12.3998C18.4001 11.9582 18.7585 11.5998 19.2001 11.5998H22.7821C22.6925 9.16377 21.8025 6.93616 20.3592 5.17176L17.7657 7.76537C17.6213 7.91017 17.4213 7.99977 17.2001 7.99977C16.7585 7.99977 16.4001 7.64137 16.4001 7.19977C16.4001 6.97857 16.4896 6.77856 16.6344 6.63416L19.2561 4.01256C17.7668 2.65898 15.9048 1.70858 13.8344 1.35498C12.0132 2.48338 10.8 4.49977 10.8 6.79977C10.8 7.49817 10.9932 8.17097 11.2 8.79977C13.1884 8.79977 14.8 10.5906 14.8 12.7998C14.8 14.7882 13.1884 16.3998 11.2 16.3998C8.76405 16.3998 6.69165 14.567 5.92125 12.0074C4.69285 12.0298 3.60565 12.6002 2.88685 13.4914C2.83165 13.8538 2.80005 14.2242 2.80005 14.5998C2.80005 15.8238 3.10325 16.9834 3.64205 18.0262L4.63405 17.0342C4.77885 16.8894 4.97885 16.7998 5.20005 16.7998C5.64165 16.7998 6.00005 17.1582 6.00005 17.5998C6.00005 17.821 5.91045 18.021 5.76565 18.1654L4.53805 19.393C5.91205 21.0894 7.99485 22.2974 10.4 22.6734V19.9998C10.4 19.5582 10.7584 19.1998 11.2 19.1998C11.6416 19.1998 12 19.5582 12 19.9998V22.7998C14.5925 22.7998 16.9709 21.8858 18.8321 20.363Z" fill="#1F1939"/>
</svg>
