<svg width="36" height="36" viewBox="0 0 36 36" fill="none" xmlns="http://www.w3.org/2000/svg">
<g clip-path="url(#clip0_10_210)">
<path d="M18 19.2015C14.3753 19.2015 10.7509 18.4702 7.31229 17.0088C5.72344 20.0305 5.38917 23.7532 6.41314 27.0269L9.28371 36H16.9453V26.3568H19.0547V36H26.7163L29.5869 27.0269C30.6108 23.7532 30.2766 20.0305 28.6877 17.0088C25.2491 18.4702 21.6247 19.2015 18 19.2015Z" fill="#1F1939"/>
<path d="M27.5439 15.2004C25.676 12.3628 24.9926 8.48046 25.6894 5.05343L26.7163 0H9.2837L10.3105 5.05343C11.0074 8.48046 10.324 12.3628 8.45605 15.2004C14.6121 17.7192 21.3879 17.7192 27.5439 15.2004ZM16.8796 10.9389H19.1203V13.0482H16.8796V10.9389Z" fill="#1F1939"/>
<path d="M35.9999 7.90234H31.5475L32.8431 6.2095L31.1679 4.92749L28.0842 8.95703L31.1679 12.9865L32.8431 11.7046L31.5475 10.0117H35.9999V7.90234Z" fill="#1F1939"/>
<path d="M4.83202 4.92749L3.15682 6.2095L4.4524 7.90234H0V10.0117H4.4524L3.15682 11.7046L4.83202 12.9865L7.91571 8.95703L4.83202 4.92749Z" fill="#1F1939"/>
</g>
<defs>
<clipPath id="clip0_10_210">
<rect width="36" height="36" fill="white"/>
</clipPath>
</defs>
</svg>
