<svg width="24" height="24" viewBox="0 0 24 24" fill="none" xmlns="http://www.w3.org/2000/svg">
<path d="M19.5004 9.97889C20.7785 7.82044 20.3947 5.03686 18.5666 3.20948L15.7966 0.439453C15.2106 -0.146484 14.2614 -0.146484 13.6755 0.439453L10.8322 3.28233C9.43184 4.68272 8.88912 6.74194 9.41572 8.65683C9.47909 8.88642 9.467 9.18858 9.29707 9.34533C8.21492 10.3433 7.59336 11.7451 7.5439 13.2293C5.28546 13.9647 3.74951 16.0847 3.74951 18.4793V22.5C3.74951 23.3284 4.38546 24 5.21384 24H9.12462C11.5343 24 13.6704 22.522 14.4398 20.3225C14.6299 19.7794 14.7346 19.2177 14.7518 18.6508C17.0059 17.9158 18.5637 15.7841 18.5637 13.4011C18.5637 12.8771 18.4897 12.3567 18.3432 11.8543C18.2744 11.6177 18.3451 11.3708 18.5318 11.1944C18.9075 10.8388 19.2334 10.4297 19.5004 9.97889ZM8.99675 21C7.75418 21 6.74675 19.9927 6.74675 18.75C6.74675 17.5073 7.75418 16.5 8.99675 16.5C10.2393 16.5 11.2467 17.5073 11.2467 18.75C11.2467 19.9927 10.2393 21 8.99675 21ZM13.4967 15.75C12.2542 15.75 11.2467 14.7427 11.2467 13.5C11.2467 12.2573 12.2542 11.25 13.4967 11.25C14.7393 11.25 15.7467 12.2573 15.7467 13.5C15.7467 14.7427 14.7393 15.75 13.4967 15.75ZM14.9967 9C13.7542 9 12.7467 7.99266 12.7467 6.75C12.7467 5.50734 13.7542 4.5 14.9967 4.5C16.2393 4.5 17.2467 5.50734 17.2467 6.75C17.2467 7.99266 16.2393 9 14.9967 9Z" fill="#1F1939"/>
</svg>
