<svg width="24" height="24" viewBox="0 0 24 24" fill="none" xmlns="http://www.w3.org/2000/svg">
<path d="M21.9471 3.71984C21.8224 5.31354 21.404 8.19594 20 9.59984C18.8009 10.7989 16.1705 11.6368 14.2539 12.1162C13.8231 12.2249 13.4409 12.4746 13.1684 12.8255C12.8959 13.1765 12.7486 13.6085 12.75 14.0528V20.8498C12.75 20.9824 12.6973 21.1096 12.6036 21.2034C12.5098 21.2972 12.3826 21.3498 12.25 21.3498H11.75C11.6174 21.3498 11.4902 21.2972 11.3965 21.2034C11.3027 21.1096 11.25 20.9824 11.25 20.8498V14.0528C11.2514 13.6085 11.1041 13.1765 10.8316 12.8256C10.559 12.4747 10.1769 12.225 9.74611 12.1163C7.83001 11.6369 5.19911 10.799 4.00001 9.59984C2.59601 8.19594 2.17761 5.31354 2.05291 3.71984C2.04211 3.57695 2.06231 3.43342 2.11212 3.29906C2.16194 3.1647 2.24018 3.04269 2.34151 2.94137C2.44284 2.84005 2.56486 2.76181 2.69922 2.71202C2.83359 2.66222 2.97712 2.64203 3.12001 2.65284C4.71361 2.77754 7.59601 3.19594 9.00001 4.59984C10.6071 6.33314 11.6529 8.51173 12 10.8498C12 10.8498 13.1284 6.47144 15 4.59984C16.404 3.19584 19.2864 2.77744 20.88 2.65274C21.0229 2.64193 21.1664 2.66212 21.3008 2.71192C21.4352 2.76173 21.5572 2.83997 21.6585 2.9413C21.7599 3.04263 21.8381 3.16466 21.8879 3.29903C21.9377 3.4334 21.9579 3.57694 21.9471 3.71984Z" fill="#1F1939"/>
</svg>
