<svg width="117" height="30" viewBox="0 0 117 30" fill="none" xmlns="http://www.w3.org/2000/svg">
<g clip-path="url(#clip0_1_760)">
<path d="M0 3.93134H4.20081V12.0635L10.8453 3.93134H16.1093L8.16168 13.0491L16.2938 23.1746H11.137L4.20081 14.0052V23.1746H0V3.93134Z" fill="#1F1939"/>
<path d="M16.1609 15.574C16.1609 10.897 19.3503 7.6781 23.9498 7.6781C28.9738 7.6781 31.9232 11.1849 31.447 16.5042H20.203C20.2842 18.9775 21.7719 20.4097 24.1897 20.4097C25.9173 20.4097 27.0617 19.7711 27.6191 18.5234L31.3141 18.9738C30.2252 21.9232 27.7519 23.4662 24.0827 23.4662C19.2986 23.4662 16.1609 20.3285 16.1609 15.5703V15.574ZM27.7483 13.8464C27.5895 11.8272 26.2052 10.5242 24.0532 10.5242C21.9011 10.5242 20.5168 11.6943 20.2806 13.8464H27.7483Z" fill="#1F1939"/>
<path d="M33.8354 15.574C33.8354 10.897 37.0247 7.6781 41.6242 7.6781C46.6482 7.6781 49.5976 11.1849 49.1214 16.5042H37.8774C37.9586 18.9775 39.4463 20.4097 41.8642 20.4097C43.5917 20.4097 44.7361 19.7711 45.2935 18.5234L48.9886 18.9738C47.8996 21.9232 45.4264 23.4662 41.7571 23.4662C36.973 23.4662 33.8354 20.3285 33.8354 15.5703V15.574ZM45.4263 13.8464C45.2676 11.8272 43.8833 10.5242 41.7313 10.5242C39.5792 10.5242 38.1949 11.6943 37.9587 13.8464H45.4263Z" fill="#1F1939"/>
<path d="M52.0414 7.96972H56.0834V10.443C56.7479 8.87411 58.5567 7.6781 60.9487 7.6781C64.4297 7.6781 67.6744 10.0701 67.6744 15.5445C67.6744 21.0188 64.4038 23.4108 60.9229 23.4108C58.5308 23.4108 56.7516 22.1632 56.0871 20.5943V28.0915H52.045V7.96972H52.0414ZM63.6287 15.5445C63.6287 12.6726 62.0598 10.9745 59.8007 10.9745C57.5415 10.9745 55.9469 12.6763 55.9469 15.5445C55.9469 18.4127 57.5415 20.0886 59.7748 20.0886C62.0081 20.0886 63.6287 18.4127 63.6287 15.5445Z" fill="#1F1939"/>
<path d="M88.1396 3.27059L85.0609 12.8572H92.9015L92.4253 14.9539H84.3928L81.7904 23.0491C80.4578 27.2093 77.9181 30 73.6324 30C69.7896 30 68.4275 27.3016 68.4275 27.3016L70.2695 25.969C70.2695 25.969 71.2846 27.6818 73.6988 27.6818C76.5892 27.6818 78.4275 25.7143 79.3799 22.6652L81.8568 14.9502H76.6187L77.0949 12.8535H82.5249L85.6036 3.2669H83.1894C76.364 3.2669 76.3308 8.15431 76.3308 8.15431L74.3633 7.61537C74.3633 7.61537 74.2378 0.9487 83.8539 0.9487H98.0104L97.501 3.2669H88.1359L88.1396 3.27059Z" fill="#A4BF43"/>
<path d="M95.4707 19.3983C95.4707 17.9697 95.8841 16.6039 96.6445 14.1934L98.3574 8.73386H100.738L98.708 15.0831C98.0731 17.1466 97.8516 18.1617 97.8516 19.1768C97.8516 20.6386 98.8668 21.4618 100.295 21.4618C103.057 21.4618 104.961 17.6855 104.961 17.6855L106.453 18.7339C106.453 18.7339 103.88 23.6545 99.7859 23.6545C97.3422 23.6545 95.467 22.1004 95.467 19.402L95.4707 19.3983ZM99.5349 3.30381C99.5349 2.41419 100.17 1.77927 101.089 1.77927C102.008 1.77927 102.643 2.41419 102.643 3.30381C102.643 4.19344 102.008 4.79514 101.089 4.79514C100.17 4.79514 99.5349 4.16022 99.5349 3.30381Z" fill="#A4BF43"/>
<path d="M116.582 18.7302C116.582 18.7302 114.105 23.6508 109.247 23.6508C106.486 23.6508 104.644 22.0635 104.644 19.3651C104.644 17.9697 105.057 16.6039 105.818 14.1897L106.962 10.5722H103.278L103.754 8.73016H107.53L110.292 0H112.673L109.911 8.73016H114.548L114.072 10.5722H109.31L107.881 15.0794C107.246 17.1429 107.025 18.1285 107.025 19.1436C107.025 20.6054 108.01 21.4618 109.723 21.4618C113.278 21.4618 115.087 17.6855 115.087 17.6855L116.578 18.7339L116.582 18.7302Z" fill="#A4BF43"/>
</g>
<defs>
<clipPath id="clip0_1_760">
<rect width="116.582" height="30" fill="white"/>
</clipPath>
</defs>
</svg>
