<svg width="133" height="34" viewBox="0 0 133 34" fill="none" xmlns="http://www.w3.org/2000/svg">
<g clip-path="url(#clip0_10_69)">
<path d="M0 4.45557H4.76092V13.672L12.2914 4.45557H18.2572L9.24991 14.789L18.4664 26.2646H12.6219L4.76092 15.8726V26.2646H0V4.45557Z" fill="#1F1939"/>
<path d="M18.3158 17.6506C18.3158 12.35 21.9304 8.7019 27.1432 8.7019C32.837 8.7019 36.1797 12.6763 35.64 18.7049H22.8968C22.9889 21.5079 24.6748 23.1311 27.4151 23.1311C29.373 23.1311 30.6699 22.4073 31.3016 20.9933L35.4894 21.5037C34.2553 24.8464 31.4523 26.5951 27.2938 26.5951C21.8718 26.5951 18.3158 23.0391 18.3158 17.6464V17.6506ZM31.4481 15.6927C31.2682 13.4043 29.6993 11.9274 27.2603 11.9274C24.8213 11.9274 23.2524 13.2536 22.9847 15.6927H31.4481Z" fill="#1F1939"/>
<path d="M38.3468 17.6506C38.3468 12.35 41.9614 8.7019 47.1742 8.7019C52.868 8.7019 56.2107 12.6763 55.671 18.7049H42.9278C43.0199 21.5079 44.7059 23.1311 47.4461 23.1311C49.404 23.1311 50.7009 22.4073 51.3327 20.9933L55.5204 21.5037C54.2863 24.8464 51.4833 26.5951 47.3248 26.5951C41.9028 26.5951 38.3468 23.0391 38.3468 17.6464V17.6506ZM51.4833 15.6927C51.3034 13.4043 49.7345 11.9274 47.2955 11.9274C44.8565 11.9274 43.2876 13.2536 43.0199 15.6927H51.4833Z" fill="#1F1939"/>
<path d="M58.9802 9.03241H63.5613V11.8354C64.3143 10.0574 66.3643 8.7019 69.0752 8.7019C73.0203 8.7019 76.6977 11.4129 76.6977 17.6171C76.6977 23.8214 72.9911 26.5323 69.0459 26.5323C66.335 26.5323 64.3185 25.1183 63.5654 23.3403V31.8371H58.9844V9.03241H58.9802ZM72.1125 17.6171C72.1125 14.3623 70.3345 12.4378 67.7741 12.4378C65.2138 12.4378 63.4065 14.3665 63.4065 17.6171C63.4065 20.8678 65.2138 22.7671 67.7448 22.7671C70.2759 22.7671 72.1125 20.8678 72.1125 17.6171Z" fill="#1F1939"/>
<path d="M99.8915 3.70667L96.4024 14.5714H105.288L104.749 16.9477H95.6452L92.6957 26.1223C91.1855 30.8372 88.3072 34 83.45 34C79.0949 34 77.5511 30.9418 77.5511 30.9418L79.6388 29.4315C79.6388 29.4315 80.7892 31.3727 83.5253 31.3727C86.8011 31.3727 88.8845 29.1429 89.9638 25.6872L92.771 16.9435H86.8345L87.3742 14.5673H93.5283L97.0174 3.70249H94.2813C86.5459 3.70249 86.5082 9.24155 86.5082 9.24155L84.2784 8.63075C84.2784 8.63075 84.1361 1.0752 95.0344 1.0752H111.078L110.501 3.70249H99.8873L99.8915 3.70667Z" fill="#A4BF43"/>
<path d="M108.2 21.9847C108.2 20.3657 108.669 18.8178 109.53 16.0859L111.472 9.89835H114.17L111.869 17.0941C111.15 19.4327 110.899 20.5832 110.899 21.7337C110.899 23.3904 112.049 24.3234 113.668 24.3234C116.797 24.3234 118.956 20.0435 118.956 20.0435L120.646 21.2317C120.646 21.2317 117.73 26.8084 113.091 26.8084C110.321 26.8084 108.196 25.0471 108.196 21.9889L108.2 21.9847ZM112.806 3.7443C112.806 2.73606 113.526 2.01648 114.568 2.01648C115.609 2.01648 116.329 2.73606 116.329 3.7443C116.329 4.75254 115.609 5.43447 114.568 5.43447C113.526 5.43447 112.806 4.71489 112.806 3.7443Z" fill="#A4BF43"/>
<path d="M132.126 21.2275C132.126 21.2275 129.319 26.8042 123.813 26.8042C120.684 26.8042 118.596 25.0053 118.596 21.9471C118.596 20.3657 119.065 18.8178 119.927 16.0817L121.224 11.9818H117.048L117.588 9.89418H121.868L124.997 0H127.696L124.566 9.89418H129.821L129.281 11.9818H123.884L122.265 17.0899C121.546 19.4286 121.295 20.5456 121.295 21.6961C121.295 23.3528 122.412 24.3234 124.353 24.3234C128.382 24.3234 130.432 20.0436 130.432 20.0436L132.122 21.2317L132.126 21.2275Z" fill="#A4BF43"/>
</g>
<defs>
<clipPath id="clip0_10_69">
<rect width="132.126" height="34" fill="white"/>
</clipPath>
</defs>
</svg>
