<svg width="24" height="24" viewBox="0 0 24 24" fill="none" xmlns="http://www.w3.org/2000/svg">
<g clip-path="url(#clip0_74_295)">
<path d="M20.5198 10.441C19.4058 9.32711 17.9412 8.78355 16.4812 8.7993C16.2308 10.0983 15.6067 11.3358 14.6211 12.3509C15.5162 12.6985 16.3401 13.222 17.0394 13.9212L17.1475 14.0293C18.3785 13.9024 19.5746 13.3748 20.5197 12.4297L24 8.94944L23.0057 7.95508L20.5198 10.441Z" fill="#1F1939"/>
<path d="M4.60983 12.4297L3.61547 11.4353L2.62102 12.4297C0.424359 14.6263 0.424359 18.1879 2.62102 20.3846L0 23.0057L0.994359 24.0001L4.60983 20.3846C6.80658 18.1879 6.80658 14.6264 4.60983 12.4297Z" fill="#1F1939"/>
<path d="M7.53188 17.7486C7.27524 19.0798 6.63273 20.3504 5.60415 21.379L4.75037 22.2328C6.90652 23.5017 9.71912 23.2303 11.5704 21.379L12.5648 20.3846L11.5704 19.3903C10.4564 18.2764 8.99185 17.7329 7.53188 17.7486Z" fill="#1F1939"/>
<path d="M7.64425 16.3536C7.9547 16.3557 8.25827 16.3922 8.56075 16.4335L9.08439 15.9099C11.2811 13.7131 11.2811 10.1516 9.08439 7.9549L8.09003 6.96045L7.09567 7.9549C6.14964 8.90084 5.63645 10.1021 5.50525 11.3363L5.60411 11.4351C6.96119 12.7922 7.63094 14.5709 7.64425 16.3536Z" fill="#1F1939"/>
<path d="M12.0065 13.2738C11.756 14.5727 11.132 15.8103 10.1464 16.8254C11.0416 17.173 11.8654 17.6964 12.5647 18.3957L12.6728 18.5038C13.9038 18.3768 15.0998 17.8493 16.045 16.9041L17.0393 15.9098L16.045 14.9153C14.9311 13.8015 13.4665 13.258 12.0065 13.2738Z" fill="#1F1939"/>
<path d="M15.0507 0L11.5704 3.48028C10.6244 4.42631 10.1112 5.62748 9.97998 6.86175L10.0788 6.96056C11.4359 8.31764 12.1057 10.0963 12.1189 11.879C12.4294 11.8811 12.733 11.9176 13.0354 11.959L13.5591 11.4353C15.7559 9.23855 15.7559 5.67708 13.5591 3.48033L16.045 0.994406L15.0507 0Z" fill="#1F1939"/>
<path d="M20.2307 2.77491L19.9681 2.7743C18.4212 2.76192 16.9453 2.76666 15.5139 3.70369C16.2274 4.83131 16.5948 6.11508 16.6045 7.40522C17.9349 7.41619 19.2008 7.7917 20.2961 8.48625C21.2333 7.05487 21.2379 5.57883 21.2256 4.03181L21.225 3.76927L24 0.994359L23.0057 0L20.2307 2.77491Z" fill="#1F1939"/>
<path d="M3 3L21 21" stroke="#1F1939" stroke-width="2"/>
<path d="M4 2L22 20" stroke="white" stroke-width="1.5"/>
</g>
<defs>
<clipPath id="clip0_74_295">
<rect width="24" height="24" fill="white"/>
</clipPath>
</defs>
</svg>
