<svg width="36" height="36" viewBox="0 0 36 36" fill="none" xmlns="http://www.w3.org/2000/svg">
<g clip-path="url(#clip0_10_268)">
<path d="M13.1766 21.9457C13.0176 21.7685 12.979 21.5137 13.0775 21.2971C14.3672 18.4618 12.9683 16.8752 13.1077 10.4692C13.1143 10.1651 13.3512 9.87504 13.7308 9.88224C14.0582 9.88846 14.3146 10.1667 14.3075 10.494C14.3012 10.7787 14.2985 11.0646 14.2988 11.3512C14.2993 11.6833 14.5704 11.9545 14.9025 11.95C15.8784 11.9366 17.7769 11.6152 18.5116 9.41115L18.877 8.315C19.5532 6.28636 18.398 4.09616 16.3202 3.52427L12.5835 2.49577C11.0948 2.08604 9.48275 2.64742 8.57155 3.8926C4.2015 9.86401 1.30014 16.7314 0.0680094 24.0056C-0.270623 26.0045 0.679348 28.0213 2.43206 29.024C12.2732 34.6547 23.9422 35.2003 34.515 30.2742C35.4172 29.8539 36.0002 28.9381 36.0002 27.9412V17.219C36.0002 16.3639 35.5791 15.568 34.8736 15.0899C31.0805 12.5191 26.2505 12.827 23.0152 16.2404C22.7268 16.5446 22.8361 17.0434 23.2228 17.2051C24.6845 17.8162 26.0663 18.7042 27.2196 19.7528C27.4703 19.9808 27.4879 20.3758 27.239 20.6241C27.013 20.8494 26.6506 20.8578 26.4137 20.6439C23.3917 17.9148 19.3061 16.6733 15.2416 17.9718C14.9923 18.0515 14.8253 18.2875 14.8294 18.5491C14.8464 19.6376 14.6647 20.6916 14.168 21.7956C13.9908 22.1891 13.4647 22.2669 13.1766 21.9457Z" fill="#1F1939"/>
</g>
<defs>
<clipPath id="clip0_10_268">
<rect width="36" height="36" fill="white"/>
</clipPath>
</defs>
</svg>
