<svg width="36" height="36" viewBox="0 0 36 36" fill="none" xmlns="http://www.w3.org/2000/svg">
<g clip-path="url(#clip0_10_222)">
<path d="M19.4656 2.90798C19.8727 2.36831 19.8073 1.22367 19.7493 0.213935C19.7471 0.170412 19.7447 0.127846 19.7422 0.0846168C19.1715 0.0301203 18.5938 0 18.009 0C15.7684 0 13.6245 0.412774 11.6458 1.16107C13.0573 1.8394 15.2422 3.00695 17.6709 4.73206C18.4995 4.01897 19.1244 3.36066 19.4656 2.90798Z" fill="#1F1939"/>
<path d="M28.5858 13.1789C27.6987 13.2791 26.9504 13.4247 26.3105 13.6289C29.3695 18.9697 30.5622 25.7172 30.854 30.6054C33.8845 27.5177 35.809 23.3435 35.991 18.7198C33.9029 16.1532 31.1367 12.8895 28.5858 13.1789Z" fill="#1F1939"/>
<path d="M10.4008 8.56897C12.5501 8.12173 14.5694 7.03997 16.1794 5.89812C12.8206 3.58482 10.0192 2.38428 9.46194 2.15576C5.97733 4.0395 3.18888 7.04085 1.56665 10.6775C3.67522 9.83733 5.95884 9.40991 8.20182 8.99345C8.92743 8.85868 9.67749 8.71942 10.4008 8.56897Z" fill="#1F1939"/>
<path d="M22.8423 9.09234C23.0341 9.28514 23.2255 9.48125 23.4155 9.68105C24.1166 10.4171 24.7528 11.2222 25.3362 12.074C26.1859 11.7532 27.1861 11.5257 28.3834 11.3903C31.2045 11.0712 33.7129 13.3059 35.8659 15.7662C35.4043 12.0365 33.8047 8.66093 31.4212 5.99878C30.1202 6.15557 28.6698 6.4212 27.1915 6.86233C26.2217 7.15197 24.6773 7.93893 22.8423 9.09234Z" fill="#1F1939"/>
<path d="M20.4737 18.3879C21.212 15.8873 22.0671 14.0847 23.7239 12.9147C23.2267 12.2009 22.6916 11.5309 22.112 10.9223C21.8438 10.6407 21.5727 10.3687 21.3003 10.1016C14.653 14.6262 5.54746 22.9377 4.71948 30.139C7.48334 33.163 11.2658 35.2368 15.5239 35.8252C17.0743 32.7384 18.5336 26.4632 19.401 22.7312C19.8177 20.9386 20.1774 19.3909 20.4737 18.3879Z" fill="#1F1939"/>
<path d="M12.9368 14.4227C15.2546 12.287 17.7022 10.3718 19.9409 8.83257C19.1947 8.17236 18.4461 7.56376 17.7113 7.00562C15.8519 8.40338 13.4174 9.78008 10.7674 10.3312C10.0253 10.4857 9.26533 10.6268 8.53066 10.7632C5.69994 11.2889 2.98263 11.798 0.697456 13.073C0.252426 14.6395 0.0090332 16.291 0.0090332 18.0001C0.0090332 21.8235 1.20486 25.366 3.23751 28.2811C4.55433 23.0673 9.07106 17.985 12.9368 14.4227Z" fill="#1F1939"/>
<path d="M21.4913 7.80437C23.6328 6.43916 25.4789 5.49519 26.6768 5.13765C27.7524 4.81642 28.8076 4.58245 29.8068 4.41182C27.4978 2.40539 24.6754 0.975373 21.5597 0.352051C21.6288 1.60915 21.6589 2.98931 20.9026 3.99205C20.5433 4.46823 19.9355 5.1213 19.1445 5.82983C19.9191 6.43275 20.7063 7.09024 21.4913 7.80437Z" fill="#1F1939"/>
<path d="M22.1999 18.8976C21.9189 19.8497 21.5643 21.3739 21.1542 23.1386C19.9432 28.3493 18.7844 33.0119 17.4312 35.9852C17.6233 35.9913 17.8154 35.9999 18.009 35.9999C22.2039 35.9999 26.0603 34.561 29.1207 32.1552C28.9999 27.0399 27.7736 19.8044 24.6846 14.4333C23.4865 15.3238 22.8417 16.7246 22.1999 18.8976Z" fill="#1F1939"/>
</g>
<defs>
<clipPath id="clip0_10_222">
<rect width="36" height="36" fill="white"/>
</clipPath>
</defs>
</svg>
