<svg width="36" height="36" viewBox="0 0 36 36" fill="none" xmlns="http://www.w3.org/2000/svg">
<path d="M23.6947 13.361C23.4572 13.1121 23.2876 12.9157 23.1955 12.8055C23.0852 12.7133 22.8889 12.5438 22.64 12.3063C21.5265 11.4254 20.1596 10.9458 18.7183 10.9458C17.0256 10.9458 15.4343 11.605 14.2375 12.8018C11.0096 16.0297 7.34162 21.4786 3.63014 28.5596C2.086 31.5055 0.827405 34.1767 0.000732422 36.0001C1.82415 35.1734 4.49532 33.9148 7.44128 32.3707C14.5222 28.6592 19.9712 24.9913 23.1991 21.7635C24.396 20.5666 25.0551 18.9752 25.0551 17.2826C25.0551 15.8413 24.5756 14.4744 23.6947 13.361Z" fill="#1F1939"/>
<path d="M35.9994 12.0563C35.3539 11.4042 34.2367 10.418 32.8919 9.82251C32.6705 10.1373 32.421 10.4385 32.1397 10.7199C30.5297 12.3299 28.2733 12.9005 26.516 13.0825C27.6 13.9376 29.0874 14.7979 30.6844 14.7979C32.9644 14.7979 35.0213 13.0444 35.9994 12.0563Z" fill="#1F1939"/>
<path d="M21.203 5.31634C21.203 6.94017 22.1142 8.45233 22.8787 9.43488C22.8918 9.45181 22.905 9.46833 22.9182 9.48505C23.1001 7.72777 23.6709 5.47123 25.2811 3.86111C25.5626 3.57958 25.8639 3.33002 26.1788 3.10858C25.5823 1.75736 24.5977 0.643108 23.946 0C22.9587 0.976785 21.203 3.03493 21.203 5.31634Z" fill="#1F1939"/>
<path d="M26.7717 5.35181C25.1596 6.96391 24.945 9.65813 24.9522 11.0485C24.9737 11.0486 24.9955 11.0486 25.0176 11.0486C26.4256 11.0486 29.0616 10.8161 30.6488 9.22888C32.261 7.61678 32.4755 4.92249 32.4684 3.53212C32.4469 3.53205 32.4251 3.53198 32.4029 3.53198C30.9958 3.53205 28.3592 3.76432 26.7717 5.35181Z" fill="#1F1939"/>
</svg>
