<svg width="36" height="36" viewBox="0 0 36 36" fill="none" xmlns="http://www.w3.org/2000/svg">
<path d="M11.8547 7.64062V6.7968C11.8547 5.43014 12.9666 4.31836 14.3332 4.31836H21.667C23.0336 4.31836 24.1454 5.43014 24.1454 6.7968V7.64062H26.2548V6.7968C26.2548 4.26703 24.1968 2.20898 21.667 2.20898H14.3332C11.8034 2.20898 9.74536 4.26703 9.74536 6.7968V7.64062H11.8547Z" fill="#1F1939"/>
<path d="M32.2712 21.1846L21.862 24.8702V25.2064C21.862 27.3359 20.1295 29.0684 18 29.0684C15.8706 29.0684 14.1381 27.3359 14.1381 25.2064V24.8702L3.72893 21.1846C2.79188 20.8528 1.93828 20.3698 1.18945 19.7708V33.7911H34.8106V19.7708C34.0618 20.3697 33.2082 20.8528 32.2712 21.1846Z" fill="#1F1939"/>
<path d="M0 9.75V12.9239C0 15.7425 1.77595 18.2554 4.43292 19.1962L14.138 22.6326V19.7402H21.862V22.6325L31.5671 19.1961C34.224 18.2554 36 15.7425 36 12.9239V9.75H0Z" fill="#1F1939"/>
<path d="M19.7525 21.8496H16.2473V25.2064C16.2473 26.1728 17.0335 26.959 17.9999 26.959C18.9663 26.959 19.7525 26.1728 19.7525 25.2064V21.8496Z" fill="#1F1939"/>
</svg>
