<svg width="36" height="36" viewBox="0 0 36 36" fill="none" xmlns="http://www.w3.org/2000/svg">
<g clip-path="url(#clip0_74_624)">
<path d="M27.4977 14.5096L29.4491 11.47C30.9573 9.20105 31.0957 6.30038 29.8095 3.89822C28.5224 1.49359 26.0288 0 23.3012 0H12.6988C9.97119 0 7.47757 1.49359 6.19052 3.89795C4.9043 6.30038 5.04245 9.20105 6.5506 11.4703L8.50232 14.5096C5.81396 17.0906 4.28906 20.6444 4.28906 24.3984C4.28906 29.0006 6.58328 33.2718 10.426 35.8239L10.6913 36H25.3087L25.574 35.8239C29.4167 33.2718 31.7109 29.0006 31.7109 24.3984C31.7109 20.6444 30.186 17.0906 27.4977 14.5096ZM24.1787 7.96783L22.0397 11.2926C20.7361 10.8907 19.3813 10.6875 18 10.6875C16.6187 10.6875 15.2639 10.8907 13.9603 11.2926L11.8306 7.98212L11.8213 7.96783C11.5321 7.53415 11.634 7.13864 11.7694 6.88458C11.9053 6.6308 12.177 6.32812 12.6988 6.32812H23.3012C23.823 6.32812 24.0947 6.6308 24.2298 6.88348C24.366 7.13864 24.4679 7.53415 24.1787 7.96783Z" fill="#1F1939"/>
<path d="M13.4353 28H15.1733V20.036H12.2473V21.587H13.4353V28ZM19.984 28.121C21.821 28.121 23.449 26.922 23.449 24.029C23.449 21.191 21.81 19.948 20.006 19.948C18.18 19.948 16.541 21.191 16.541 24.029C16.541 26.922 18.158 28.121 19.984 28.121ZM19.984 26.57C18.917 26.57 18.246 25.679 18.246 24.029C18.246 22.423 18.928 21.499 19.984 21.499C21.029 21.499 21.722 22.423 21.722 24.029C21.722 25.679 21.04 26.57 19.984 26.57Z" fill="white"/>
</g>
<defs>
<clipPath id="clip0_74_624">
<rect width="36" height="36" fill="white"/>
</clipPath>
</defs>
</svg>
