<svg width="36" height="36" viewBox="0 0 36 36" fill="none" xmlns="http://www.w3.org/2000/svg">
<g clip-path="url(#clip0_74_627)">
<path d="M27.4977 14.5096L29.4491 11.47C30.9573 9.20105 31.0957 6.30038 29.8095 3.89822C28.5224 1.49359 26.0288 0 23.3012 0H12.6988C9.97119 0 7.47757 1.49359 6.19052 3.89795C4.9043 6.30038 5.04245 9.20105 6.5506 11.4703L8.50232 14.5096C5.81396 17.0906 4.28906 20.6444 4.28906 24.3984C4.28906 29.0006 6.58328 33.2718 10.426 35.8239L10.6913 36H25.3087L25.574 35.8239C29.4167 33.2718 31.7109 29.0006 31.7109 24.3984C31.7109 20.6444 30.186 17.0906 27.4977 14.5096ZM24.1787 7.96783L22.0397 11.2926C20.7361 10.8907 19.3813 10.6875 18 10.6875C16.6187 10.6875 15.2639 10.8907 13.9603 11.2926L11.8306 7.98212L11.8213 7.96783C11.5321 7.53415 11.634 7.13864 11.7694 6.88458C11.9053 6.6308 12.177 6.32812 12.6988 6.32812H23.3012C23.823 6.32812 24.0947 6.6308 24.2298 6.88348C24.366 7.13864 24.4679 7.53415 24.1787 7.96783Z" fill="#1F1939"/>
<path d="M10.9172 28H17.1212V26.449H13.2712C16.0652 24.876 17.1762 23.831 17.1762 22.412C17.1762 20.85 15.9772 19.948 13.9972 19.948C12.2262 19.948 11.0712 20.828 10.8292 22.368L12.4462 22.61C12.5782 21.884 13.1612 21.466 13.9972 21.466C14.8332 21.466 15.4162 21.884 15.4162 22.588C15.4162 23.457 15.0642 24.007 10.9172 26.471V28ZM21.6221 28.121C23.4591 28.121 25.0871 26.922 25.0871 24.029C25.0871 21.191 23.4481 19.948 21.6441 19.948C19.8181 19.948 18.1791 21.191 18.1791 24.029C18.1791 26.922 19.7961 28.121 21.6221 28.121ZM21.6221 26.57C20.5551 26.57 19.8841 25.679 19.8841 24.029C19.8841 22.423 20.5661 21.499 21.6221 21.499C22.6671 21.499 23.3601 22.423 23.3601 24.029C23.3601 25.679 22.6781 26.57 21.6221 26.57Z" fill="white"/>
</g>
<defs>
<clipPath id="clip0_74_627">
<rect width="36" height="36" fill="white"/>
</clipPath>
</defs>
</svg>
