<svg width="62" height="36" viewBox="0 0 62 36" fill="none" xmlns="http://www.w3.org/2000/svg">
<g clip-path="url(#clip0_74_649)">
<path d="M27.4977 14.5096L29.4491 11.47C30.9573 9.20105 31.0957 6.30038 29.8095 3.89822C28.5224 1.49359 26.0288 0 23.3012 0H12.6988C9.97119 0 7.47757 1.49359 6.19052 3.89795C4.9043 6.30038 5.04245 9.20105 6.5506 11.4703L8.50232 14.5096C5.81396 17.0906 4.28906 20.6444 4.28906 24.3984C4.28906 29.0006 6.58328 33.2718 10.426 35.8239L10.6913 36H25.3087L25.574 35.8239C29.4167 33.2718 31.7109 29.0006 31.7109 24.3984C31.7109 20.6444 30.186 17.0906 27.4977 14.5096ZM24.1787 7.96783L22.0397 11.2926C20.7361 10.8907 19.3813 10.6875 18 10.6875C16.6187 10.6875 15.2639 10.8907 13.9603 11.2926L11.8306 7.98212L11.8213 7.96783C11.5321 7.53415 11.634 7.13864 11.7694 6.88458C11.9053 6.6308 12.177 6.32812 12.6988 6.32812H23.3012C23.823 6.32812 24.0947 6.6308 24.2298 6.88348C24.366 7.13864 24.4679 7.53415 24.1787 7.96783Z" fill="#1F1939"/>
<path d="M13.9486 28.143C15.8846 28.143 17.1936 27.23 17.1936 25.8C17.1936 24.821 16.6326 24.172 15.6426 23.985C16.5556 23.732 17.0506 23.116 17.0506 22.214C17.0506 20.817 15.8626 19.937 13.9596 19.937C12.3206 19.937 11.1876 20.74 10.8576 22.115L12.4526 22.335C12.6946 21.719 13.1896 21.4 13.9156 21.4C14.8286 21.4 15.3236 21.752 15.3236 22.423C15.3236 23.05 14.8176 23.369 13.8276 23.369H13.1456V24.59H13.8936C15.0156 24.59 15.4666 24.887 15.4666 25.58C15.4666 26.262 14.8946 26.669 13.9376 26.669C13.0906 26.669 12.5186 26.295 12.2876 25.613L10.6926 25.866C10.9786 27.241 12.1666 28.143 13.9486 28.143ZM21.6597 28.121C23.4967 28.121 25.1247 26.922 25.1247 24.029C25.1247 21.191 23.4857 19.948 21.6817 19.948C19.8557 19.948 18.2167 21.191 18.2167 24.029C18.2167 26.922 19.8337 28.121 21.6597 28.121ZM21.6597 26.57C20.5927 26.57 19.9217 25.679 19.9217 24.029C19.9217 22.423 20.6037 21.499 21.6597 21.499C22.7047 21.499 23.3977 22.423 23.3977 24.029C23.3977 25.679 22.7157 26.57 21.6597 26.57Z" fill="white"/>
</g>
<g clip-path="url(#clip1_74_649)">
<path d="M35.8731 36.6572L35.8728 36.657C31.7518 33.9201 29.2891 29.3365 29.2891 24.3984C29.2891 20.6499 30.707 17.086 33.2292 14.3777L31.7133 12.017C30.0055 9.44209 29.8501 6.15082 31.3089 3.42601L35.8731 36.6572ZM35.8731 36.6572L36.1384 36.8332L36.3897 37M35.8731 36.6572L36.3897 37M36.3897 37H36.6913M36.3897 37H36.6913M36.6913 37H51.3087H51.6103M36.6913 37H51.6103M51.6103 37L51.8616 36.8332M51.6103 37L51.8616 36.8332M51.8616 36.8332L52.1269 36.6572L52.1272 36.657M51.8616 36.8332L52.1272 36.657M52.1272 36.657C56.2482 33.9201 58.7109 29.3365 58.7109 24.3984C58.7109 20.6499 57.293 17.086 54.7708 14.3777M52.1272 36.657L54.7708 14.3777M50.2298 6.88348L49.3477 7.35447C49.355 7.36814 49.3595 7.37916 49.3621 7.38694C49.3592 7.39283 49.3544 7.40152 49.3467 7.41301L49.3422 7.41986L49.3377 7.42677L47.598 10.1309C46.4269 9.8361 45.2223 9.6875 44 9.6875C42.7777 9.6875 41.5731 9.8361 40.4021 10.1309L38.6716 7.44108L38.6716 7.44107L38.6676 7.43487L38.6583 7.42059L38.6583 7.42056L38.6533 7.41301C38.6455 7.40136 38.6407 7.39259 38.6378 7.38668C38.6403 7.37922 38.6446 7.36875 38.6514 7.35585C38.6576 7.34426 38.6633 7.33571 38.6677 7.32987C38.6744 7.32898 38.6846 7.32812 38.6988 7.32812H49.3012C49.3154 7.32812 49.3255 7.32898 49.3323 7.32987C49.3365 7.33559 49.342 7.3439 49.348 7.35507L50.2298 6.88348ZM50.2298 6.88348C50.0947 6.6308 49.823 6.32812 49.3012 6.32812H38.6988C38.177 6.32812 37.9053 6.6308 37.7694 6.88458L50.1787 7.96783C50.4679 7.53415 50.366 7.13864 50.2298 6.88348ZM54.7708 14.3777L56.2865 12.0167C57.9942 9.44214 58.1499 6.15091 56.6911 3.42633L54.7708 14.3777ZM49.3012 -1C52.3975 -1 55.2299 0.69647 56.6911 3.42619L49.3012 -1ZM49.3012 -1H38.6988M49.3012 -1H38.6988M38.6988 -1C35.6025 -1 32.77 0.696488 31.3089 3.42595L38.6988 -1Z" fill="#1F1939" stroke="white" stroke-width="2"/>
<path d="M39.4353 28H41.1733V20.036H38.2473V21.587H39.4353V28ZM45.984 28.121C47.821 28.121 49.449 26.922 49.449 24.029C49.449 21.191 47.81 19.948 46.006 19.948C44.18 19.948 42.541 21.191 42.541 24.029C42.541 26.922 44.158 28.121 45.984 28.121ZM45.984 26.57C44.917 26.57 44.246 25.679 44.246 24.029C44.246 22.423 44.928 21.499 45.984 21.499C47.029 21.499 47.722 22.423 47.722 24.029C47.722 25.679 47.04 26.57 45.984 26.57Z" fill="white"/>
</g>
<defs>
<clipPath id="clip0_74_649">
<rect width="36" height="36" fill="white"/>
</clipPath>
<clipPath id="clip1_74_649">
<rect width="36" height="36" fill="white" transform="translate(26)"/>
</clipPath>
</defs>
</svg>
