<svg width="36" height="36" viewBox="0 0 36 36" fill="none" xmlns="http://www.w3.org/2000/svg">
<g clip-path="url(#clip0_74_630)">
<path d="M27.4977 14.5096L29.4491 11.47C30.9573 9.20105 31.0957 6.30038 29.8095 3.89822C28.5224 1.49359 26.0288 0 23.3012 0H12.6988C9.97119 0 7.47757 1.49359 6.19052 3.89795C4.9043 6.30038 5.04245 9.20105 6.5506 11.4703L8.50232 14.5096C5.81396 17.0906 4.28906 20.6444 4.28906 24.3984C4.28906 29.0006 6.58328 33.2718 10.426 35.8239L10.6913 36H25.3087L25.574 35.8239C29.4167 33.2718 31.7109 29.0006 31.7109 24.3984C31.7109 20.6444 30.186 17.0906 27.4977 14.5096ZM24.1787 7.96783L22.0397 11.2926C20.7361 10.8907 19.3813 10.6875 18 10.6875C16.6187 10.6875 15.2639 10.8907 13.9603 11.2926L11.8306 7.98212L11.8213 7.96783C11.5321 7.53415 11.634 7.13864 11.7694 6.88458C11.9053 6.6308 12.177 6.32812 12.6988 6.32812H23.3012C23.823 6.32812 24.0947 6.6308 24.2298 6.88348C24.366 7.13864 24.4679 7.53415 24.1787 7.96783Z" fill="#1F1939"/>
<path d="M13.9486 28.143C15.8846 28.143 17.1936 27.23 17.1936 25.8C17.1936 24.821 16.6326 24.172 15.6426 23.985C16.5556 23.732 17.0506 23.116 17.0506 22.214C17.0506 20.817 15.8626 19.937 13.9596 19.937C12.3206 19.937 11.1876 20.74 10.8576 22.115L12.4526 22.335C12.6946 21.719 13.1896 21.4 13.9156 21.4C14.8286 21.4 15.3236 21.752 15.3236 22.423C15.3236 23.05 14.8176 23.369 13.8276 23.369H13.1456V24.59H13.8936C15.0156 24.59 15.4666 24.887 15.4666 25.58C15.4666 26.262 14.8946 26.669 13.9376 26.669C13.0906 26.669 12.5186 26.295 12.2876 25.613L10.6926 25.866C10.9786 27.241 12.1666 28.143 13.9486 28.143ZM21.6597 28.121C23.4967 28.121 25.1247 26.922 25.1247 24.029C25.1247 21.191 23.4857 19.948 21.6817 19.948C19.8557 19.948 18.2167 21.191 18.2167 24.029C18.2167 26.922 19.8337 28.121 21.6597 28.121ZM21.6597 26.57C20.5927 26.57 19.9217 25.679 19.9217 24.029C19.9217 22.423 20.6037 21.499 21.6597 21.499C22.7047 21.499 23.3977 22.423 23.3977 24.029C23.3977 25.679 22.7157 26.57 21.6597 26.57Z" fill="white"/>
</g>
<defs>
<clipPath id="clip0_74_630">
<rect width="36" height="36" fill="white"/>
</clipPath>
</defs>
</svg>
